<svg width="22" height="22" viewBox="0 0 22 22" fill="none" xmlns="http://www.w3.org/2000/svg">
<path d="M20.2799 5.40002L10.7399 14.94C9.7899 15.89 6.96987 16.33 6.33987 15.7C5.70987 15.07 6.13987 12.25 7.08987 11.3L16.6399 1.74999C16.8754 1.49305 17.1605 1.28651 17.4781 1.14281C17.7956 0.99911 18.139 0.92121 18.4875 0.91387C18.8359 0.90654 19.1823 0.96988 19.5056 1.10009C19.8289 1.2303 20.1225 1.4247 20.3686 1.6715C20.6147 1.9183 20.8083 2.2124 20.9376 2.53606C21.0669 2.85973 21.1294 3.20623 21.1211 3.55468C21.1128 3.90313 21.0339 4.24632 20.8894 4.56347C20.7448 4.88062 20.5375 5.16521 20.2799 5.40002Z" stroke="#5A3733" stroke-width="1.5" stroke-linecap="round" stroke-linejoin="round"/>
<path d="M10 2.99997H5C3.93913 2.99997 2.92178 3.42139 2.17163 4.17154C1.42149 4.92169 1 5.9391 1 6.99997V17C1 18.0609 1.42149 19.0783 2.17163 19.8284C2.92178 20.5786 3.93913 21 5 21H16C18.21 21 19 19.2 19 17V12" stroke="#5A3733" stroke-width="1.5" stroke-linecap="round" stroke-linejoin="round"/>
</svg>
