<svg width="28" height="28" viewBox="0 0 28 28" fill="none" xmlns="http://www.w3.org/2000/svg">
<path fill-rule="evenodd" clip-rule="evenodd" d="M17.747 15.4149C17.9856 14.8742 18.1189 14.2724 18.1189 14.0016C18.1189 11.6544 16.2953 9.75127 14.0461 9.75127C11.797 9.75127 9.97339 11.6544 9.97339 14.0016C9.97339 16.3487 12.0098 17.8886 14.0461 17.8886C15.3487 17.8886 16.5081 17.2515 17.2518 16.2595C17.4467 16.0001 17.6138 15.7168 17.747 15.4149ZM14.0461 15.7635C14.5552 15.7635 15.0206 15.5684 15.3785 15.2457C15.8101 14.8566 16.0001 14.2807 16.0001 14.0016C16.0001 12.828 15.1717 11.8764 14.0461 11.8764C12.9206 11.8764 12.0001 12.8264 12.0001 14C12.0001 14.8104 12.9206 15.7635 14.0461 15.7635Z" fill="#5A3733"/>
<path fill-rule="evenodd" clip-rule="evenodd" d="M1.09212 14.2724C1.07621 14.2527 1.10803 14.2931 1.09212 14.2724C0.96764 14.1021 0.970773 13.8996 1.09268 13.7273C1.10161 13.7147 1.11071 13.7016 1.11993 13.6882C4.781 8.34316 9.32105 5.49997 14.0142 5.49997C18.7025 5.49997 23.2385 8.33551 26.8956 13.6698C26.965 13.771 27 13.875 27 13.9995C27 14.1301 26.9593 14.2399 26.8863 14.3461C23.2302 19.6702 18.6982 22.5 14.0142 22.5C9.30912 22.5 4.75717 19.6433 1.09212 14.2724ZM3.93909 13.3525C3.6381 13.7267 3.6381 14.2722 3.93908 14.6465C7.07417 18.5443 10.6042 20.3749 14.0142 20.3749C17.4243 20.3749 20.9543 18.5443 24.0894 14.6465C24.3904 14.2722 24.3904 13.7267 24.0894 13.3525C20.9543 9.45472 17.4243 7.6251 14.0142 7.6251C10.6042 7.6251 7.07417 9.45472 3.93909 13.3525Z" fill="#5A3733"/>
</svg>
