<svg width="35" height="35" viewBox="0 0 35 35" fill="none" xmlns="http://www.w3.org/2000/svg">
<path d="M25.8414 10.5292H22.3671L18.2897 6.35835C17.7441 5.83335 16.9114 5.83335 16.3659 6.35835C15.849 6.91251 15.849 7.75835 16.3659 8.31252L18.5481 10.5292H10.7092L12.8915 8.31252C13.4083 7.75835 13.4083 6.91251 12.8915 6.35835C12.3746 5.83335 11.5132 5.83335 10.9964 6.35835L6.89028 10.5292H3.4159C1.92278 10.5292 0.716797 11.7542 0.716797 13.2708V17.3542C0.716797 18.1125 1.31979 18.725 2.06635 18.725H2.69805L4.01889 27.3583C4.27732 29.225 5.85658 30.5958 7.72298 30.5667H21.5631C23.4008 30.5958 24.98 29.225 25.2384 27.3583L26.5593 18.725H27.191C27.9375 18.725 28.5405 18.1125 28.5405 17.3542V13.2708C28.5405 11.7542 27.3346 10.5292 25.8414 10.5292ZM3.4159 15.9833V13.2708H25.8414V15.9833H3.4159ZM23.8315 18.725L22.5968 26.95C22.5106 27.475 22.0799 27.8542 21.5631 27.8542H7.72298C7.20613 27.8542 6.74671 27.475 6.68928 26.95L5.42587 18.725H23.8315ZM9.70424 24.6458V21.9333C9.70424 21.175 10.3072 20.5625 11.0538 20.5625C11.7716 20.5625 12.3746 21.175 12.3746 21.9333V24.6458C12.3746 25.4042 11.7716 26.0167 11.0538 26.0167C10.3072 26.0167 9.70424 25.4042 9.70424 24.6458ZM15.9639 24.6458V21.9333C15.9639 21.175 16.5669 20.5625 17.3134 20.5625C18.06 20.5625 18.663 21.175 18.663 21.9333V24.6458C18.663 25.4042 18.06 26.0167 17.3134 26.0167C16.5669 26.0167 15.9639 25.4042 15.9639 24.6458Z" fill="#5B5858"/>
</svg>
