<svg width="30" height="38" viewBox="0 0 30 38" fill="none" xmlns="http://www.w3.org/2000/svg">
<path id="Vector" d="M23.5714 12.024V9.71923C23.5714 4.63569 19.7263 0.5 15 0.5C10.2737 0.5 6.42857 4.63569 6.42857 9.71923V12.024H0V31.6149C0 34.7972 2.39846 37.3769 5.35714 37.3769H24.6429C27.6015 37.3769 30 34.7972 30 31.6149V12.024H23.5714ZM10.7143 9.71923C10.7143 7.17746 12.6368 5.10962 15 5.10962C17.3632 5.10962 19.2857 7.17746 19.2857 9.71923V12.024H10.7143V9.71923ZM21.4286 18.3623C20.541 18.3623 19.8214 17.5883 19.8214 16.6337C19.8214 15.679 20.541 14.905 21.4286 14.905C22.3162 14.905 23.0357 15.679 23.0357 16.6337C23.0357 17.5883 22.3162 18.3623 21.4286 18.3623ZM8.57143 18.3623C7.68382 18.3623 6.96429 17.5883 6.96429 16.6337C6.96429 15.679 7.68382 14.905 8.57143 14.905C9.45904 14.905 10.1786 15.679 10.1786 16.6337C10.1786 17.5883 9.45904 18.3623 8.57143 18.3623Z" fill="black"/>
</svg>
