<svg width="34" height="30" viewBox="0 0 34 30" fill="none" xmlns="http://www.w3.org/2000/svg">
<path d="M29.7923 18.1766H12.4886L12.875 19.9943H28.7191C29.6282 19.9943 30.302 20.8066 30.1005 21.6596L29.7748 23.0386C30.8781 23.5539 31.6389 24.6422 31.6389 25.9016C31.6389 27.674 30.1326 29.1078 28.2847 29.0822C26.5243 29.0578 25.0765 27.6831 25.029 25.9895C25.003 25.0644 25.3882 24.2259 26.0209 23.6295H13.6458C14.2583 24.207 14.6389 25.0113 14.6389 25.9016C14.6389 27.7087 13.073 29.1638 11.1757 29.079C9.49108 29.0038 8.12098 27.6939 8.03244 26.0732C7.96409 24.8217 8.64845 23.7185 9.68823 23.1431L5.54171 3.63532H1.41667C0.634253 3.63532 0 3.02498 0 2.27207V1.36324C0 0.610336 0.634253 0 1.41667 0H7.46873C8.1417 0 8.72177 0.455608 8.85665 1.09003L9.39769 3.63532H32.5827C33.4918 3.63532 34.1656 4.44764 33.9642 5.30069L31.1737 17.1155C31.0272 17.7362 30.4538 18.1766 29.7923 18.1766ZM24.0833 9.54271H21.25V7.27064C21.25 6.76868 20.8272 6.36181 20.3056 6.36181H19.3611C18.8395 6.36181 18.4167 6.76868 18.4167 7.27064V9.54271H15.5833C15.0617 9.54271 14.6389 9.94958 14.6389 10.4515V11.3604C14.6389 11.8623 15.0617 12.2692 15.5833 12.2692H18.4167V14.5413C18.4167 15.0432 18.8395 15.4501 19.3611 15.4501H20.3056C20.8272 15.4501 21.25 15.0432 21.25 14.5413V12.2692H24.0833C24.605 12.2692 25.0278 11.8623 25.0278 11.3604V10.4515C25.0278 9.94958 24.605 9.54271 24.0833 9.54271Z" fill="white"/>
</svg>
