<svg width="22" height="21" viewBox="0 0 22 21" fill="none" xmlns="http://www.w3.org/2000/svg">
<g clip-path="url(#clip0_5_309)">
<path d="M9.30773 1.32102C10.8693 1.32115 12.3957 1.76327 13.694 2.59148C14.9923 3.41968 16.0042 4.59677 16.6017 5.97391C17.1992 7.35105 17.3554 8.86639 17.0507 10.3283C16.746 11.7902 15.9939 13.133 14.8897 14.187C13.7855 15.2409 12.3787 15.9586 10.8471 16.2494C9.31556 16.5401 7.72807 16.3908 6.2854 15.8204C4.84274 15.25 3.60968 14.284 2.74215 13.0446C1.87462 11.8052 1.41158 10.3481 1.41158 8.85758C1.41415 6.8594 2.24692 4.94376 3.7272 3.53089C5.20747 2.11802 7.2144 1.32329 9.30773 1.32102ZM9.30773 -3.05176e-05C7.47244 -3.05176e-05 5.67836 0.519461 4.15237 1.49275C2.62638 2.46603 1.43702 3.8494 0.734685 5.46792C0.0323494 7.08643 -0.151425 8.8674 0.206623 10.5856C0.56467 12.3038 1.44846 13.8821 2.74621 15.1209C4.04395 16.3596 5.69739 17.2032 7.49742 17.545C9.29745 17.8868 11.1632 17.7114 12.8588 17.0409C14.5544 16.3705 16.0036 15.2352 17.0233 13.7786C18.0429 12.322 18.5871 10.6095 18.5871 8.85758C18.5871 6.5084 17.6095 4.25542 15.8693 2.5943C14.129 0.933173 11.7688 -3.05176e-05 9.30773 -3.05176e-05Z" fill="#5A3733"/>
<path d="M21.2749 21C21.0914 21.0001 20.9155 20.9307 20.7856 20.8071L15.346 15.6154C15.2799 15.5545 15.2272 15.4816 15.1909 15.401C15.1547 15.3204 15.1356 15.2337 15.1348 15.146C15.134 15.0583 15.1515 14.9713 15.1863 14.8902C15.2211 14.809 15.2725 14.7352 15.3374 14.6732C15.4024 14.6112 15.4797 14.5622 15.5647 14.5289C15.6497 14.4957 15.7408 14.479 15.8327 14.4798C15.9246 14.4806 16.0154 14.4988 16.0999 14.5334C16.1843 14.568 16.2606 14.6183 16.3245 14.6814L21.7641 19.8731C21.8608 19.9655 21.9267 20.0832 21.9534 20.2113C21.9801 20.3394 21.9664 20.4722 21.914 20.5929C21.8616 20.7135 21.773 20.8167 21.6592 20.8893C21.5455 20.9619 21.4117 20.9999 21.2749 21Z" fill="#5A3733"/>
</g>
<defs>
<clipPath id="clip0_5_309">
<rect width="22" height="21" fill="white"/>
</clipPath>
</defs>
</svg>
