<svg width="50" height="47" viewBox="0 0 50 47" fill="none" xmlns="http://www.w3.org/2000/svg">
<path d="M29.5951 0.776035C27.1511 0.727409 24.9878 1.84581 23.6007 3.59635L23.5676 3.64497C23.5521 3.6673 23.5356 3.68894 23.5181 3.70981C23.5004 3.73053 23.4839 3.75217 23.4685 3.77464L16.6814 12.7462C14.117 13.5352 11.8183 14.9916 10.0297 16.9604C9.59127 16.9766 9.15437 17.021 8.72184 17.0933V16.9199C8.72184 15.1369 7.71451 13.5485 6.09617 12.7543L4.97324 12.1383C4.87565 12.0915 4.76962 12.064 4.66121 12.0574C4.55279 12.0508 4.44411 12.0652 4.34137 12.0998C4.23863 12.1344 4.14384 12.1886 4.06242 12.2591C3.981 12.3297 3.91453 12.4153 3.86683 12.5111C3.81912 12.6069 3.7911 12.711 3.78436 12.8174C3.77763 12.9238 3.79232 13.0305 3.82759 13.1313C3.86286 13.2322 3.91802 13.3252 3.98992 13.4051C4.06182 13.485 4.14905 13.5503 4.24664 13.5971L5.35306 14.213C6.40993 14.7317 7.07048 15.7691 7.07048 16.9199V17.5245C5.16252 18.2126 3.5164 19.4601 2.35542 21.0978C1.19445 22.7354 0.574822 24.684 0.580607 26.6791C0.580607 31.9194 4.78664 36.218 10.0594 36.3979C11.7379 38.2335 13.8627 39.622 16.2356 40.4338V40.7321C16.2356 41.5587 15.9053 42.3529 15.3108 42.9365L14.2374 43.99C13.7585 44.4601 13.7585 45.2381 14.2374 45.7081C14.4851 45.9513 14.7989 46.0647 15.1126 46.0647C15.4264 46.0647 15.7401 45.9513 15.9879 45.7081L17.0612 44.6546C18.0386 43.6893 18.623 42.4067 18.7044 41.0481C19.3638 41.154 20.0296 41.2163 20.6975 41.2345H27.0091C27.1247 42.5215 27.6861 43.721 28.6373 44.6546L29.7107 45.7081C29.9584 45.9513 30.2722 46.0647 30.5859 46.0647C30.8997 46.0647 31.2135 45.9513 31.4612 45.7081C31.9401 45.2381 31.9401 44.4601 31.4612 43.99L30.3878 42.9365C29.9184 42.4743 29.6093 41.8789 29.5043 41.2345H30.4869C31.5885 41.2348 32.6858 41.0997 33.7533 40.8326C33.9584 41.4215 34.346 41.9328 34.8618 42.2949C35.3776 42.657 35.9958 42.8519 36.6299 42.8522H39.0574C39.7345 42.8522 40.296 42.2849 40.296 41.6203C40.296 40.9558 39.7345 40.4047 39.0574 40.4047H36.6299C36.508 40.4057 36.3892 40.3673 36.2916 40.2956C36.1941 40.2238 36.1232 40.1227 36.0899 40.0075C38.3711 38.959 40.2991 37.292 41.6468 35.2033L47.42 27.4004L48.8666 27.0973C49.3455 26.9839 49.3455 26.3193 48.8666 26.2221L47.42 25.919L41.6468 18.1161C40.0869 15.6989 37.7564 13.8559 35.0182 12.8742C36.2611 11.4989 36.9257 9.71165 36.8776 7.87382C36.7786 3.99994 33.5419 0.839249 29.5951 0.774414M31.8212 37.902C31.3789 37.9606 30.9331 37.9899 30.4869 37.9896H26.3518V15.3298H30.4869C30.936 15.3298 31.3819 15.359 31.8212 15.4173V37.902ZM40.078 31.8076V21.5102L43.886 26.6597L40.078 31.8076ZM12.264 33.9455C12.5809 33.5519 12.7526 33.0645 12.7512 32.5629V20.7792C12.7512 20.2524 12.5646 19.7694 12.2541 19.3917C13.7723 17.61 15.8111 16.3285 18.095 15.7204V37.6054C15.8161 36.9986 13.7812 35.7214 12.264 33.9455ZM7.91267 28.2643C7.4747 28.2643 7.05467 28.0936 6.74498 27.7896C6.43529 27.4856 6.26131 27.0734 6.26131 26.6435C6.26131 26.2136 6.43529 25.8013 6.74498 25.4974C7.05467 25.1934 7.4747 25.0226 7.91267 25.0226C8.35064 25.0226 8.77067 25.1934 9.08036 25.4974C9.39006 25.8013 9.56404 26.2136 9.56404 26.6435C9.56404 27.0734 9.39006 27.4856 9.08036 27.7896C8.77067 28.0936 8.35064 28.2643 7.91267 28.2643Z" fill="white"/>
</svg>
