<svg width="35" height="43" viewBox="0 0 35 43" fill="none" xmlns="http://www.w3.org/2000/svg">
<path d="M32.3549 6.67753H26.0646C26.0646 3.19688 22.3114 0.387207 17.6775 0.387207C13.0436 0.387207 9.29042 3.19688 9.29042 6.67753H3.00009C1.84687 6.67753 0.90332 7.62108 0.90332 8.7743C0.90332 9.92753 1.84687 10.8711 3.00009 10.8711V25.5485C3.00009 26.6607 3.44191 27.7273 4.22836 28.5138C5.0148 29.3002 6.08144 29.742 7.19364 29.742H28.1614C30.4888 29.742 32.3549 27.8759 32.3549 25.5485V10.8711C33.5082 10.8711 34.4517 9.92753 34.4517 8.7743C34.4517 7.62108 33.5082 6.67753 32.3549 6.67753ZM28.1614 25.5485H7.19364V10.8711H28.1614V25.5485ZM25.7711 12.9679C25.9388 13.6388 26.0646 14.3308 26.0646 15.0646C26.0646 19.6985 22.3114 23.4517 17.6775 23.4517C13.0436 23.4517 9.29042 19.6985 9.29042 15.0646C9.29042 14.3308 9.41622 13.6388 9.58397 12.9679H14.0711C13.7146 13.5969 13.484 14.2888 13.484 15.0646C13.484 17.3711 15.3711 19.2582 17.6775 19.2582C19.984 19.2582 21.8711 17.3711 21.8711 15.0646C21.8711 14.2888 21.6404 13.5969 21.284 12.9679H25.7711ZM34.4517 36.0324V42.3227H0.90332V36.0324C0.90332 34.3969 1.8888 32.992 3.37751 31.8388H17.6775C11.9743 31.8388 5.49526 34.5437 5.09687 36.0324V38.1291H30.2582V36.0324C29.8598 34.5437 23.3807 31.8388 17.6775 31.8388H31.9775C33.4662 32.992 34.4517 34.3969 34.4517 36.0324Z" fill="white"/>
</svg>
