<svg width="46" height="41" viewBox="0 0 46 41" fill="none" xmlns="http://www.w3.org/2000/svg">
<path d="M40.9672 0.516113L34.5147 0.527322L34.0121 0.524632L33.7625 0.942038L30.6066 6.22126L25.1965 6.23247L22.3307 1.44642L22.0895 1.02319L21.587 1.01781L15.1347 1.02893L14.6294 1.02606L14.3824 1.44355L11.2581 6.67229L5.23366 6.6835L4.73102 6.68081L4.48127 7.0983L1.25659 12.4953L1.00959 12.9128L1.26504 13.3331L4.12519 18.1106L1.02393 23.3058L0.77417 23.7233L1.02981 24.1437L4.25742 29.5322L4.49569 29.9582L5.00108 29.9608L11.2323 29.9497L14.0836 34.7048L14.3221 35.1308L14.8275 35.1337L21.0386 35.1225L23.9044 39.9086L24.1457 40.3316L24.6483 40.3373L31.1006 40.3261L31.5887 40.3344L31.8387 39.9169L34.9772 34.6825L41.0018 34.6714L41.4899 34.6798L41.7369 34.2623L44.9788 28.8598L45.2258 28.4423L44.9703 28.0219L41.7426 22.6334L41.5043 22.2102L40.9989 22.2048L34.7878 22.2159L32.2893 18.0464L35.3161 12.9941L40.9701 12.9829L41.4583 12.9914L41.7052 12.5739L44.9443 7.17138L45.1943 6.7538L44.9385 6.33343L41.7109 0.944907L41.4727 0.521852L40.9673 0.516293L40.9672 0.516113ZM40.476 2.18896L43.1868 6.77048L40.4733 11.3156L35.0086 11.3239L32.2864 6.75936L35.0114 2.1947L40.476 2.18896ZM11.195 8.34523L13.9057 12.9267L11.192 17.4718L5.72738 17.4803L3.00525 12.9155L5.73032 8.35097L11.195 8.34532V8.34523ZM21.0184 13.546L23.64 17.9846L20.849 22.6585L15.5396 22.667L12.8289 18.1193L15.5539 13.5545L21.0186 13.5461L21.0184 13.546ZM30.6956 18.6879L33.3948 23.2554L30.6812 27.8034L25.2168 27.8088L22.5777 23.3843L25.3861 18.6964L30.6956 18.6879ZM40.5075 23.8775L43.2183 28.4591L40.5048 33.0042L35.0401 33.0097L32.318 28.4479L35.0431 23.8831L40.5077 23.8775H40.5075ZM20.7945 24.3429L23.4966 28.913L20.7831 33.4581L15.3184 33.4637L12.5962 28.899L15.3125 24.3513L20.7943 24.3429H20.7945Z" fill="white"/>
</svg>
