<svg width="35" height="57" viewBox="0 0 35 57" fill="none" xmlns="http://www.w3.org/2000/svg">
<path d="M31.046 0.9679C30.9959 0.967201 30.9449 0.969533 30.8939 0.971398C29.3653 1.0312 27.5019 2.24331 26.3407 5.55821C24.9921 9.40856 23.0552 16.118 21.4507 21.8725H27.1225C29.608 16.7366 32.2356 11.0172 33.5251 7.27406C34.1668 5.41271 34.1008 3.95497 33.7172 2.94245C33.3333 1.92982 32.6511 1.33129 31.8385 1.0881C31.6288 1.02575 31.4127 0.987809 31.1943 0.975012C31.1451 0.972098 31.0961 0.968483 31.0461 0.968017L31.046 0.9679ZM4.21513 24.0512C2.33187 24.0512 0.90332 25.5318 0.90332 27.1843C0.90332 28.8135 2.27732 30.147 4.16811 30.179L6.04651 30.2116L5.0765 31.833C2.98939 35.315 1.64539 41.3464 1.64539 45.0905C1.64539 49.5572 3.3174 52.1708 6.13696 53.8925C7.02694 54.436 8.04247 54.8787 9.16293 55.2297C8.78152 52.9645 8.49892 50.6913 8.36306 48.4096C6.81568 43.0471 7.14693 37.6838 7.07813 32.3213H16.7674C15.6634 36.7296 14.9297 41.1414 14.6934 45.5498C14.7826 49.112 15.2328 52.6905 15.8987 56.2861C16.4807 56.3108 17.0743 56.3226 17.6757 56.3226C22.2972 56.3226 26.3983 55.6145 29.2181 53.8926C32.0377 52.1709 33.7096 49.5574 33.7096 45.0906C33.7096 41.3551 32.3601 35.3147 30.2784 31.8294L29.312 30.2083L31.1871 30.1792C33.0771 30.1485 34.4517 28.814 34.4517 27.1844C34.4517 25.5321 33.0196 24.0513 31.1363 24.0513H15.801C15.0354 26.079 15.42 28.1107 16.3801 30.1427H7.73681C5.51419 28.0244 5.44933 26.0171 7.0889 24.0513L4.21513 24.0512ZM12.0403 37.1993C11.2971 40.8159 10.7744 44.4324 10.5129 48.0488C10.6545 50.6206 10.9967 53.2022 11.4648 55.798C12.1705 55.9321 12.9072 56.0372 13.6654 56.1186C12.8637 51.6397 12.3916 47.1357 12.5396 42.6095C12.2067 40.8065 12.0844 39.0021 12.0402 37.1994L12.0403 37.1993Z" fill="white"/>
</svg>
