<svg width="49" height="55" viewBox="0 0 49 55" fill="none" xmlns="http://www.w3.org/2000/svg">
<path d="M9.78785 3.42416L3.79928 9.26047C3.40375 9.64325 3.08965 10.0984 2.87498 10.5998C2.66032 11.1012 2.54932 11.6389 2.54835 12.1822C2.54737 12.7255 2.65645 13.2637 2.86932 13.7658C3.08219 14.2679 3.39466 14.7241 3.78881 15.1082C4.18296 15.4924 4.65103 15.7969 5.16618 16.0042C5.68133 16.2116 6.23342 16.3178 6.79077 16.3168C7.34812 16.3157 7.89978 16.2074 8.41409 15.998C8.9284 15.7887 9.39524 15.4824 9.78785 15.0968L15.7751 9.25922C16.5493 8.48119 16.9784 7.43754 16.9698 6.3537C16.9612 5.26985 16.5155 4.23281 15.7291 3.46655C14.9427 2.7003 13.8786 2.26634 12.7668 2.25841C11.6549 2.25048 10.5857 2.66921 9.78785 3.42416ZM22.761 14.1247L14.7779 21.9064C14.3847 22.2897 14.0728 22.7448 13.86 23.2456C13.6472 23.7464 13.5376 24.2831 13.5376 24.8252C13.5376 25.3673 13.6472 25.904 13.86 26.4048C14.0728 26.9056 14.3847 27.3607 14.7779 27.744C15.1711 28.1273 15.6379 28.4313 16.1517 28.6388C16.6655 28.8462 17.2161 28.953 17.7722 28.953C18.3283 28.953 18.8789 28.8462 19.3927 28.6388C19.9064 28.4313 20.3733 28.1273 20.7665 27.744L28.7495 19.961C29.5437 19.1869 29.9898 18.137 29.9898 17.0422C29.9898 15.9475 29.5437 14.8975 28.7495 14.1234C27.9554 13.3493 26.8783 12.9144 25.7552 12.9144C24.6322 12.9144 23.5551 13.3506 22.761 14.1247Z" stroke="white" stroke-width="4"/>
<path d="M27.7501 20.9321L45.3327 38.0713C46.6454 39.3509 46.3683 41.6934 44.716 43.3065C43.0624 44.9183 40.6581 45.1872 39.3455 43.9089L21.7628 26.7696M19.767 5.36858L5.79667 18.9866C5.00254 19.7607 4.5564 20.8107 4.5564 21.9054C4.5564 23.0002 5.00254 24.0501 5.79667 24.8242C6.59081 25.5983 7.66788 26.0332 8.79096 26.0332C9.91403 26.0332 10.9911 25.5983 11.7852 24.8242L25.7543 11.2049C26.1499 10.8222 26.4641 10.3671 26.6789 9.86577C26.8937 9.36443 27.0048 8.82669 27.0059 8.28339C27.007 7.74009 26.898 7.20193 26.6853 6.69978C26.4725 6.19762 26.1601 5.74135 25.7661 5.35714C25.372 4.97293 24.904 4.66833 24.3889 4.46083C23.8738 4.25333 23.3217 4.14701 22.7644 4.14796C22.207 4.1489 21.6553 4.25711 21.141 4.46636C20.6266 4.67561 20.1597 4.98304 19.767 5.36858Z" stroke="white" stroke-width="4"/>
<path d="M8.81862 26.1992C10.6369 31.7219 10.3343 35.8019 7.91203 38.4394C4.27675 42.3962 4.84113 52.3375 13.0528 52.3375C21.2644 52.3375 23.6764 42.3962 16.72 38.9074" stroke="white" stroke-width="4" stroke-linecap="round"/>
</svg>
