<svg width="45" height="47" viewBox="0 0 45 47" fill="none" xmlns="http://www.w3.org/2000/svg">
<path d="M44.3871 29.1775C44.3871 25.9066 42.3452 23.1598 39.5302 22.2163C40.0853 21.1679 40.4223 19.9727 40.4223 18.6937C40.4223 15.4227 38.3804 12.6759 35.5654 11.7324C36.1204 10.684 36.4575 9.48884 36.4575 8.2098C36.4575 4.16303 33.3451 0.871094 29.519 0.871094H15.6422C11.8162 0.871094 8.70379 4.16303 8.70379 8.2098C8.70379 9.48884 9.0408 10.684 9.59587 11.7324C6.80068 12.6759 4.73898 15.4227 4.73898 18.6937C4.73898 19.9727 5.07599 21.1679 5.63106 22.2163C2.83587 23.1598 0.77417 25.9066 0.77417 29.1775C0.77417 31.8195 2.10238 34.084 4.08479 35.384C3.25218 36.5792 2.75657 38.0679 2.75657 39.6614C2.75657 43.7082 5.86895 47.0001 9.69499 47.0001H35.4663C39.2923 47.0001 42.4047 43.7082 42.4047 39.6614C42.4047 38.0679 41.9091 36.5792 41.0765 35.384C43.0589 34.084 44.3871 31.8195 44.3871 29.1775ZM15.6422 5.06464H29.519C31.1644 5.06464 32.4926 6.46948 32.4926 8.2098C32.4926 9.95013 31.1644 11.355 29.519 11.355H15.6422C13.9968 11.355 12.6686 9.95013 12.6686 8.2098C12.6686 6.46948 13.9968 5.06464 15.6422 5.06464ZM11.6774 15.5485H33.4838C35.1292 15.5485 36.4575 16.9534 36.4575 18.6937C36.4575 20.434 35.1292 21.8388 33.4838 21.8388H11.6774C10.032 21.8388 8.70379 20.434 8.70379 18.6937C8.70379 16.9534 10.032 15.5485 11.6774 15.5485ZM6.72138 39.6614C6.72138 37.9211 8.0496 36.5163 9.69499 36.5163H16.6334V42.8066H9.69499C8.0496 42.8066 6.72138 41.4017 6.72138 39.6614ZM35.4663 42.8066H28.5278V36.5163H35.4663C37.1116 36.5163 38.4399 37.9211 38.4399 39.6614C38.4399 41.4017 37.1116 42.8066 35.4663 42.8066ZM37.4487 32.3227H28.171C27.3384 29.8904 25.1577 28.1292 22.5806 28.1292C20.0035 28.1292 17.8229 29.8904 16.9902 32.3227H7.71259C6.06719 32.3227 4.73898 30.9179 4.73898 29.1775C4.73898 27.4372 6.06719 26.0324 7.71259 26.0324H37.4487C39.0941 26.0324 40.4223 27.4372 40.4223 29.1775C40.4223 30.9179 39.0941 32.3227 37.4487 32.3227Z" fill="white"/>
</svg>
