<svg width="22" height="22" viewBox="0 0 22 22" fill="none" xmlns="http://www.w3.org/2000/svg">
<path d="M4.15715 1.05568C3.45932 1.32706 2.86918 1.6889 2.27904 2.27904C1.6889 2.86487 1.32706 3.45932 1.05568 4.15284C0.792917 4.82483 0.616305 5.59589 0.564614 6.72448C0.512923 7.85307 0.5 8.21491 0.5 11.0924C0.5 13.9699 0.512923 14.3317 0.564614 15.4603C0.616305 16.5889 0.797224 17.3599 1.05568 18.0319C1.32706 18.7298 1.6889 19.3199 2.27904 19.91C2.86918 20.5002 3.45932 20.862 4.15715 21.1334C4.82914 21.3962 5.6002 21.5728 6.72879 21.6245C7.85738 21.6762 8.21922 21.6891 11.0967 21.6891C13.9742 21.6891 14.336 21.6762 15.4646 21.6245C16.5932 21.5728 17.3642 21.3918 18.0362 21.1334C18.7341 20.862 19.3242 20.5002 19.9143 19.91C20.5045 19.3199 20.8663 18.7298 21.1377 18.0319C21.4005 17.3599 21.5771 16.5889 21.6288 15.4603C21.6805 14.3317 21.6934 13.9699 21.6934 11.0924C21.6934 8.21491 21.6805 7.85307 21.6288 6.72448C21.5771 5.59589 21.3962 4.82483 21.1377 4.15284C20.8663 3.45932 20.5045 2.86487 19.9186 2.27904C19.3285 1.6889 18.7384 1.32706 18.0405 1.05568C17.3686 0.792917 16.5975 0.616305 15.4689 0.564614C14.3403 0.512923 13.9785 0.5 11.101 0.5C8.22352 0.5 7.86168 0.512923 6.73309 0.564614C5.6002 0.611998 4.82914 0.792917 4.15715 1.05568ZM15.3784 2.46857C16.4123 2.51596 16.9723 2.68826 17.347 2.83472C17.8424 3.02856 18.1956 3.25686 18.5661 3.62732C18.9365 3.99777 19.1648 4.35099 19.3587 4.84637C19.5051 5.22113 19.6774 5.78111 19.7248 6.81494C19.7765 7.93061 19.7851 8.2666 19.7851 11.0967C19.7851 13.9268 19.7722 14.2628 19.7248 15.3784C19.6774 16.4123 19.5051 16.9723 19.3587 17.347C19.1648 17.8424 18.9365 18.1956 18.5661 18.5661C18.1956 18.9365 17.8424 19.1648 17.347 19.3587C16.9723 19.5051 16.4123 19.6774 15.3784 19.7248C14.2628 19.7765 13.9268 19.7851 11.0967 19.7851C8.2666 19.7851 7.93061 19.7722 6.81494 19.7248C5.78111 19.6774 5.22113 19.5051 4.84637 19.3587C4.35099 19.1648 3.99777 18.9365 3.62732 18.5661C3.25686 18.1956 3.02856 17.8424 2.83472 17.347C2.68826 16.9723 2.51596 16.4123 2.46857 15.3784C2.41688 14.2628 2.40827 13.9268 2.40827 11.0967C2.40827 8.2666 2.42119 7.93061 2.46857 6.81494C2.51596 5.78111 2.68826 5.22113 2.83472 4.84637C3.02856 4.35099 3.25686 3.99777 3.62732 3.62732C3.99777 3.25686 4.35099 3.02856 4.84637 2.83472C5.22113 2.68826 5.78111 2.51596 6.81494 2.46857C7.93061 2.41688 8.2666 2.40827 11.0967 2.40827C13.9268 2.40827 14.2628 2.41688 15.3784 2.46857Z" fill="white"/>
<path d="M5.65625 11.0967C5.65625 14.1034 8.09435 16.5372 11.0967 16.5372C14.0991 16.5372 16.5372 14.0991 16.5372 11.0967C16.5372 8.09435 14.1034 5.65625 11.0967 5.65625C8.09004 5.65625 5.65625 8.09004 5.65625 11.0967ZM14.629 11.0967C14.629 13.0481 13.0481 14.629 11.0967 14.629C9.1454 14.629 7.56452 13.0481 7.56452 11.0967C7.56452 9.1454 9.1454 7.56452 11.0967 7.56452C13.0481 7.56452 14.629 9.1454 14.629 11.0967Z" fill="white"/>
<path d="M16.7568 6.71165C17.4586 6.71165 18.0276 6.14272 18.0276 5.44091C18.0276 4.7391 17.4586 4.17017 16.7568 4.17017C16.055 4.17017 15.4861 4.7391 15.4861 5.44091C15.4861 6.14272 16.055 6.71165 16.7568 6.71165Z" fill="white"/>
</svg>
