<svg width="22" height="18" viewBox="0 0 22 18" fill="none" xmlns="http://www.w3.org/2000/svg">
<path fill-rule="evenodd" clip-rule="evenodd" d="M21.5 2.4375C20.7125 2.83125 19.925 2.9625 19.0062 3.09375C19.925 2.56875 20.5812 1.78125 20.8438 0.73125C20.0562 1.25625 19.1375 1.51875 18.0875 1.78125C17.3 0.99375 16.1187 0.46875 14.9375 0.46875C12.7062 0.46875 10.7375 2.4375 10.7375 4.8C10.7375 5.19375 10.7375 5.45625 10.8687 5.71875C7.325 5.5875 4.04375 3.88125 1.94375 1.25625C1.55 1.9125 1.41875 2.56875 1.41875 3.4875C1.41875 4.93125 2.20625 6.24375 3.3875 7.03125C2.73125 7.03125 2.075 6.76875 1.41875 6.50625C1.41875 8.60625 2.8625 10.3125 4.83125 10.7062C4.4375 10.8375 4.04375 10.8375 3.65 10.8375C3.3875 10.8375 3.125 10.8375 2.8625 10.7062C3.3875 12.4125 4.9625 13.725 6.93125 13.725C5.4875 14.9062 3.65 15.5625 1.55 15.5625C1.15625 15.5625 0.89375 15.5625 0.5 15.5625C2.46875 16.7437 4.7 17.5312 7.0625 17.5312C14.9375 17.5312 19.2687 10.9688 19.2687 5.325C19.2687 5.19375 19.2687 4.93125 19.2687 4.8C20.1875 4.14375 20.975 3.35625 21.5 2.4375Z" fill="white"/>
</svg>
