<svg width="17" height="15" viewBox="0 0 17 15" fill="none" xmlns="http://www.w3.org/2000/svg">
<path d="M4.72222 13.125C3.96667 13.125 3.21111 12.4688 2.83333 12.1875C0.944444 10.875 0.377778 10.4062 0 10.125V14.0625C0 14.5802 0.422934 15 0.944444 15H8.5C9.02151 15 9.44444 14.5802 9.44444 14.0625V10.125C9.06667 10.4062 8.5 10.875 6.61111 12.1875C6.23333 12.4688 5.47778 13.125 4.72222 13.125ZM8.5 7.5H0.944444C0.422934 7.5 0 7.91982 0 8.4375V8.90625C0.755556 9.46875 0.661111 9.46875 3.4 11.4375C3.68333 11.625 4.25 12.1875 4.72222 12.1875C5.19444 12.1875 5.76111 11.625 6.04444 11.5312C8.78333 9.5625 8.68889 9.5625 9.44444 9V8.4375C9.44444 7.91982 9.02151 7.5 8.5 7.5ZM16.0556 4.6875H6.61111C6.0896 4.6875 5.66667 5.10732 5.66667 5.625V6.5625H8.5C9.48016 6.5625 10.2882 7.30723 10.3803 8.25645L10.3889 8.25V12.1875H16.0556C16.5771 12.1875 17 11.7677 17 11.25V5.625C17 5.10732 16.5771 4.6875 16.0556 4.6875ZM15.1111 8.4375H13.2222V6.5625H15.1111V8.4375ZM4.72222 5.625C4.72222 4.59111 5.56957 3.75 6.61111 3.75H13.2222V0.9375C13.2222 0.419824 12.7993 0 12.2778 0H2.83333C2.31182 0 1.88889 0.419824 1.88889 0.9375V6.5625H4.72222V5.625Z" fill="white"/>
</svg>
