<svg width="19" height="28" viewBox="0 0 19 28" fill="none" xmlns="http://www.w3.org/2000/svg">
<path d="M12.8047 10.5026H11.034L8.95594 8.40991C8.6779 8.1465 8.25352 8.1465 7.97547 8.40991C7.71206 8.68795 7.71206 9.11234 7.97547 9.39038L9.08765 10.5026H5.0926L6.20477 9.39038C6.46818 9.11234 6.46818 8.68795 6.20477 8.40991C5.94136 8.1465 5.50234 8.1465 5.23893 8.40991L3.14629 10.5026H1.37559C0.614624 10.5026 0 11.1172 0 11.8781V13.9269C0 14.3074 0.307312 14.6147 0.687793 14.6147H1.00974L1.6829 18.9463C1.8146 19.8829 2.61947 20.5707 3.57067 20.556H10.6242C11.5608 20.5707 12.3656 19.8829 12.4973 18.9463L13.1705 14.6147H13.4925C13.8729 14.6147 14.1802 14.3074 14.1802 13.9269V11.8781C14.1802 11.1172 13.5656 10.5026 12.8047 10.5026ZM1.37559 13.2391V11.8781H12.8047V13.2391H1.37559ZM11.7803 14.6147L11.151 18.7414C11.1071 19.0049 10.8876 19.1951 10.6242 19.1951H3.57067C3.30726 19.1951 3.07312 19.0049 3.04385 18.7414L2.39996 14.6147H11.7803ZM4.58041 17.5854V16.2244C4.58041 15.8439 4.88772 15.5366 5.2682 15.5366C5.63405 15.5366 5.94136 15.8439 5.94136 16.2244V17.5854C5.94136 17.9658 5.63405 18.2732 5.2682 18.2732C4.88772 18.2732 4.58041 17.9658 4.58041 17.5854ZM7.7706 17.5854V16.2244C7.7706 15.8439 8.07791 15.5366 8.45839 15.5366C8.83887 15.5366 9.14618 15.8439 9.14618 16.2244V17.5854C9.14618 17.9658 8.83887 18.2732 8.45839 18.2732C8.07791 18.2732 7.7706 17.9658 7.7706 17.5854Z" fill="#131313"/>
</svg>
